# xmcd
#
# Track frame offsets:
#	150
#	23948
#	37676
#	69167
#	83645
#	133322
#	163262
#	178527
#	194790
#	220043
#	244718
#	264300
#	297096
#
# Disc length: 4251 seconds
#
# Revision: 1
# Processed by: cddbd v1.5.2PL0 Copyright (c) Steve Scherf et al.
# Submitted via: audiograbber 1.83.01
#
DISCID=b410990d
DTITLE=Grateful Dead - 72-11-19 Hofheinz Pavilion, Houston TX
DYEAR=1900
DGENRE=
TTITLE0=Bertha
TTITLE1=Me and My Uncle
TTITLE2=Sugaree
TTITLE3=BIODTL
TTITLE4=Bird Song
TTITLE5=Black Throated Wind
TTITLE6=Don't Ease Me In
TTITLE7=Mexicali Blues
TTITLE8=Box Of Rain
TTITLE9=Tomorrow Is Forever
TTITLE10=Big River
TTITLE11=China Cat Sunflower
TTITLE12=I Know You Rider
EXTD=
EXTT0=
EXTT1=
EXTT2=
EXTT3=
EXTT4=
EXTT5=
EXTT6=
EXTT7=
EXTT8=
EXTT9=
EXTT10=
EXTT11=
EXTT12=
PLAYORDER=
